# xmcd
#
# Track frame offsets:
#	150
#	12581
#	30141
#	43706
#	58135
#	70971
#	83186
#	103229
#	113582
#	129145
#	143736
#	154548
#	170300
#	185080
#	198078
#	213425
#	224777
#	241581
#	258623
#	272350
#
# Disc length: 3841
#
# Revision: 1
# Processed by: cddbd v1.5.1PL0 Copyright (c) Steve Scherf et al.
# Submitted via: ExactAudioCopy v0.95a3
# Normalized: r0:TRMNUM
#
DISCID=170eff14
DTITLE=barreirito - As 20 mais do Barreirito
DYEAR=1900
DGENRE=Sertanejo
TTITLE0=Cadeira amiga
TTITLE1=Morto por dentro
TTITLE2=O cantor das andorinhas
TTITLE3=Onde estao os meus passos
TTITLE4=um ombro para chorar
TTITLE5=Meu dia de sol
TTITLE6=Juventude que perdi
TTITLE7=Voce minha razao
TTITLE8=Luz acesa
TTITLE9=cigarro whisk e gelo
TTITLE10=devolva meus passos
TTITLE11=Desculpas
TTITLE12=O outro
TTITLE13=Vestido colado
TTITLE14=O menino da canda
TTITLE15=O filho do carreteiro
TTITLE16=Hipocrisia
TTITLE17=Bolero da saudade
TTITLE18=Esta noite
TTITLE19=Amanha
EXTD=
EXTT0=
EXTT1=
EXTT2=
EXTT3=
EXTT4=
EXTT5=
EXTT6=
EXTT7=
EXTT8=
EXTT9=
EXTT10=
EXTT11=
EXTT12=
EXTT13=
EXTT14=
EXTT15=
EXTT16=
EXTT17=
EXTT18=
EXTT19=
PLAYORDER=
